<?xml version="1.0" encoding="UTF-8" standalone="no"?>
<!DOCTYPE svg PUBLIC "-//W3C//DTD SVG 1.1//EN"
 "http://www.w3.org/Graphics/SVG/1.1/DTD/svg11.dtd">
<!-- Generated by graphviz version 2.43.0 (0)
 -->
<!-- Title: sourcetree Pages: 1 -->
<svg width="258pt" height="116pt"
 viewBox="0.00 0.00 257.50 116.00" xmlns="http://www.w3.org/2000/svg" xmlns:xlink="http://www.w3.org/1999/xlink">
<g id="graph0" class="graph" transform="scale(1 1) rotate(0) translate(4 112)">
<title>sourcetree</title>
<polygon fill="white" stroke="transparent" points="-4,4 -4,-112 253.5,-112 253.5,4 -4,4"/>
<!-- MulleObjCContainerFoundation -->
<g id="node1" class="node">
<title>MulleObjCContainerFoundation</title>
<polygon fill="yellow" stroke="black" points="249.5,-108 6.5,-108 6.5,-72 249.5,-72 249.5,-108"/>
<text text-anchor="middle" x="128" y="-86.3" font-family="Times,serif" font-size="14.00">MulleObjCContainerFoundation</text>
</g>
<!-- mulle&#45;container -->
<g id="node2" class="node">
<title>mulle&#45;container</title>
<g id="a_node2"><a xlink:href="https://github.com/mulle-c/mulle-container" xlink:title="mulle&#45;container">
<polygon fill="lightgrey" stroke="black" points="128,-36 0,-36 0,0 128,0 128,-36"/>
<text text-anchor="middle" x="64" y="-14.3" font-family="Times,serif" font-size="14.00">mulle&#45;container</text>
</a>
</g>
</g>
<!-- MulleObjCContainerFoundation&#45;&gt;mulle&#45;container -->
<g id="edge1" class="edge">
<title>MulleObjCContainerFoundation&#45;&gt;mulle&#45;container</title>
<path fill="none" stroke="black" d="M112.18,-71.7C104.43,-63.22 94.96,-52.86 86.48,-43.58"/>
<polygon fill="black" stroke="black" points="88.97,-41.12 79.64,-36.1 83.8,-45.85 88.97,-41.12"/>
</g>
<!-- MulleObjC -->
<g id="node3" class="node">
<title>MulleObjC</title>
<g id="a_node3"><a xlink:href="https://github.com/mulle-objc/MulleObjC" xlink:title="MulleObjC">
<polygon fill="lightgrey" stroke="black" points="238,-36 146,-36 146,0 238,0 238,-36"/>
<text text-anchor="middle" x="192" y="-14.3" font-family="Times,serif" font-size="14.00">MulleObjC</text>
</a>
</g>
</g>
<!-- MulleObjCContainerFoundation&#45;&gt;MulleObjC -->
<g id="edge2" class="edge">
<title>MulleObjCContainerFoundation&#45;&gt;MulleObjC</title>
<path fill="none" stroke="black" d="M143.82,-71.7C151.57,-63.22 161.04,-52.86 169.52,-43.58"/>
<polygon fill="black" stroke="black" points="172.2,-45.85 176.36,-36.1 167.03,-41.12 172.2,-45.85"/>
</g>
</g>
</svg>
